<svg xmlns="http://www.w3.org/2000/svg" xmlns:xlink="http://www.w3.org/1999/xlink" viewBox="0 0 621.51 843.79"><defs><style>.cls-1{fill:url(#未命名的渐变_37);}.cls-2{fill:url(#未命名的渐变_37-2);}.cls-3{fill:url(#未命名的渐变_34);}.cls-4{fill:url(#未命名的渐变_34-2);}.cls-5{fill:url(#未命名的渐变_34-3);}.cls-6{fill:#354762;}.cls-7{fill:#ed783a;}.cls-8{fill:url(#未命名的渐变_29);}.cls-9{fill:url(#未命名的渐变_4);}.cls-10{fill:url(#未命名的渐变_29-2);}.cls-11{fill:url(#未命名的渐变_4-2);}.cls-12{fill:url(#未命名的渐变_23);}.cls-13{fill:url(#未命名的渐变_23-2);}.cls-14{fill:#b2b8c3;}.cls-15{fill:url(#未命名的渐变_23-3);}.cls-16{fill:url(#未命名的渐变_23-4);}.cls-17{fill:url(#未命名的渐变_4-3);}.cls-18{fill:url(#未命名的渐变_4-4);}.cls-19{fill:url(#未命名的渐变_4-5);}.cls-20{fill:#4d6286;}.cls-21{fill:#354664;}</style><linearGradient id="未命名的渐变_37" x1="240.69" y1="552.13" x2="240.69" y2="841.8" gradientUnits="userSpaceOnUse"><stop offset="0" stop-color="#f9dab4"/><stop offset="1" stop-color="#fdf1e3"/></linearGradient><linearGradient id="未命名的渐变_37-2" x1="380.82" y1="552.13" x2="380.82" y2="841.8" xlink:href="#未命名的渐变_37"/><linearGradient id="未命名的渐变_34" x1="257.86" y1="624.06" x2="258.02" y2="569.02" gradientUnits="userSpaceOnUse"><stop offset="0" stop-color="#f0a035"/><stop offset="1" stop-color="#ee7d3a"/></linearGradient><linearGradient id="未命名的渐变_34-2" x1="328.13" y1="599.05" x2="328.28" y2="544.02" xlink:href="#未命名的渐变_34"/><linearGradient id="未命名的渐变_34-3" x1="398.61" y1="624.06" x2="398.76" y2="569.02" xlink:href="#未命名的渐变_34"/><linearGradient id="未命名的渐变_29" x1="255.81" y1="181.67" x2="259.84" y2="518.79" gradientUnits="userSpaceOnUse"><stop offset="0" stop-color="#e9eff8"/><stop offset="1" stop-color="#c0c8da"/></linearGradient><linearGradient id="未命名的渐变_4" x1="220.92" y1="544.37" x2="292.8" y2="544.37" gradientUnits="userSpaceOnUse"><stop offset="0" stop-color="#fff"/><stop offset="1" stop-color="#d1d5dd"/></linearGradient><linearGradient id="未命名的渐变_29-2" x1="398.76" y1="232.79" x2="398.76" y2="522.94" xlink:href="#未命名的渐变_29"/><linearGradient id="未命名的渐变_4-2" x1="363.19" y1="545.32" x2="434.65" y2="545.32" xlink:href="#未命名的渐变_4"/><linearGradient id="未命名的渐变_23" x1="152.23" y1="369.56" x2="299.04" y2="369.56" gradientUnits="userSpaceOnUse"><stop offset="0" stop-color="#fff"/><stop offset="1" stop-color="#d3d7e0"/></linearGradient><linearGradient id="未命名的渐变_23-2" x1="233.26" y1="267.23" x2="227.62" y2="466.4" xlink:href="#未命名的渐变_23"/><linearGradient id="未命名的渐变_23-3" x1="8157.2" y1="369.3" x2="8304" y2="369.3" gradientTransform="matrix(-1, 0, 0, 1, 8660.53, 0)" xlink:href="#未命名的渐变_23"/><linearGradient id="未命名的渐变_23-4" x1="8238.23" y1="266.97" x2="8232.58" y2="466.13" gradientTransform="matrix(-1, 0, 0, 1, 8660.53, 0)" xlink:href="#未命名的渐变_23"/><linearGradient id="未命名的渐变_4-3" x1="292.8" y1="319.37" x2="363.76" y2="319.37" xlink:href="#未命名的渐变_4"/><linearGradient id="未命名的渐变_4-4" x1="289.36" y1="494.61" x2="324.35" y2="494.61" xlink:href="#未命名的渐变_4"/><linearGradient id="未命名的渐变_4-5" x1="333.67" y1="494.61" x2="368.66" y2="494.61" xlink:href="#未命名的渐变_4"/></defs><g id="图层_2" data-name="图层 2"><g id="图层_1-2" data-name="图层 1"><path class="cls-1" d="M452.5,808.69c190.9,50.94-635.1,44.49-414.84-6.79S241.41,538.49,241.41,538.49h34.88S261.6,757.74,452.5,808.69Z"/><path class="cls-2" d="M592.63,808.69c190.89,50.94-635.11,44.49-414.84-6.79S381.54,538.49,381.54,538.49h34.87S401.73,757.74,592.63,808.69Z"/><path class="cls-3" d="M256.77,634.51a1.08,1.08,0,0,0,2,0l19.31-54.69c.61-1.72,1.12-16.33-.86-16.33h-38.6c-2,0-1.1,14.59-.51,16.3Z"/><path class="cls-4" d="M327,609.5a1.08,1.08,0,0,0,2,0l19.31-54.69c.61-1.72,1.13-16.33-.85-16.33H308.88c-2,0-1.09,14.59-.51,16.3Z"/><path class="cls-5" d="M397.51,634.51a1.08,1.08,0,0,0,2,0l19.31-54.69c.61-1.72,1.13-16.33-.85-16.33H379.36c-2,0-1.09,14.59-.51,16.3Z"/><path class="cls-6" d="M350.62,543.21H305.94c-3.29,0-5.74-2.65-5-5.46l4.59-18a.45.45,0,0,1,.45-.31H350.6a.44.44,0,0,1,.44.31l4.59,18C356.35,540.56,353.91,543.21,350.62,543.21Z"/><path class="cls-7" d="M339.49,6.85c12.42,20.62,18.78,41.24,26.1,61.86C369.2,79,373,89.33,376,99.64a210.31,210.31,0,0,1,6.5,30.93,566.18,566.18,0,0,1,4.36,61.85c.14,10.31,0,20.62-.63,30.93s-1.56,161.79-3.56,172.1c-6.88,35.61-36.8,57.86-66.82,49.7-21.52-5.85-37.25-25.8-41.91-49.7-2-10.31-2.91-161.79-3.55-172.1s-.78-20.62-.63-30.93a566.18,566.18,0,0,1,4.36-61.85,210.27,210.27,0,0,1,6.49-30.93c3-10.31,6.78-20.62,10.39-30.93,7.31-20.62,13.68-41.24,26.09-61.86,4.43-7.35,13-9,19.23-3.81A15.82,15.82,0,0,1,339.49,6.85Z"/><path class="cls-8" d="M229,544.56H286c.94-9.9,1.39-267.37,1.71-271.81.33-4.65.41-9.31.33-14a220.92,220.92,0,0,0-2.28-27.93,83.54,83.54,0,0,0-3.39-14c-1.56-4.65-3.54-9.31-5.42-14-3.82-9.31-7.15-18.62-13.63-27.94a7.56,7.56,0,0,0-1.68-1.71,7.09,7.09,0,0,0-10,1.71c-6.48,9.32-9.81,18.63-13.62,27.94-1.89,4.65-3.87,9.31-5.43,14a83.54,83.54,0,0,0-3.39,14,220.92,220.92,0,0,0-2.28,27.93c-.07,4.65,0,9.31.33,14C227.57,277.19,228,534.66,229,544.56Z"/><rect class="cls-9" x="220.92" y="541.23" width="71.88" height="6.27" rx="1.61"/><path class="cls-10" d="M370.22,546.51H427.3c.94-9.9,1.39-269.32,1.71-273.76.32-4.65.4-9.31.33-14a220.92,220.92,0,0,0-2.28-27.93,83.54,83.54,0,0,0-3.39-14c-1.56-4.65-3.54-9.31-5.43-14-3.82-9.31-7.14-18.62-13.63-27.94a7.31,7.31,0,0,0-1.67-1.71,7.09,7.09,0,0,0-10,1.71c-6.49,9.32-9.81,18.63-13.63,27.94-1.88,4.65-3.86,9.31-5.42,14a84.57,84.57,0,0,0-3.4,14,222.77,222.77,0,0,0-2.27,27.93c-.08,4.65,0,9.31.32,14C368.83,277.19,369.28,536.61,370.22,546.51Z"/><rect class="cls-11" x="363.19" y="542.18" width="71.46" height="6.27" rx="1.61"/><path class="cls-12" d="M295.62,198.84s-24,30.88-23.53,88.16-20,91.12-32.86,106.58C225.36,410.2,173,434.5,166.41,448.21c-13,27.05-14.17,49.88-14.18,56.59,0,2.57,5.77,5.22,7.31,5.94,11.36,5.34,68.16,20.63,139.5,29.54Z"/><path class="cls-13" d="M295.62,181.17s-24,30.87-23.53,88.15-20,91.13-32.86,106.58c-13.87,16.62-61.12,40.71-67.72,54.43A199.8,199.8,0,0,0,154,488.07c-.39,2.62,4,4.27,5.54,5C170.9,498.4,227.7,513.69,299,522.6Z"/><polygon class="cls-14" points="301.8 360.46 218.48 393.26 214.7 395.94 298.53 363.05 301.8 360.46"/><path class="cls-15" d="M360,198.58s24,30.88,23.53,88.16,20,91.12,32.86,106.58c13.87,16.62,66.22,40.92,72.82,54.63,13,27.05,14.17,49.87,14.18,56.59,0,2.57-5.77,5.22-7.31,5.94-11.36,5.34-68.16,20.63-139.5,29.54Z"/><path class="cls-16" d="M360,180.91s24,30.87,23.53,88.15,20,91.13,32.86,106.58c13.87,16.62,61.12,40.71,67.73,54.43a200,200,0,0,1,17.5,57.74c.39,2.62-4,4.27-5.54,5-11.36,5.34-68.16,20.63-139.5,29.54Z"/><polygon class="cls-14" points="353.77 360.2 437.09 393 440.87 395.68 357.04 362.79 353.77 360.2"/><path class="cls-17" d="M295.2,539.11h66.16c1.09-14.06,1.61-290,2-296.27.38-6.61.47-13.22.38-19.83a382.72,382.72,0,0,0-2.64-39.66,140.45,140.45,0,0,0-3.93-19.83c-1.81-6.61-4.1-13.22-6.29-19.83-4.42-13.22-8.28-26.45-15.79-39.67a10,10,0,0,0-1.94-2.43c-3.75-3.37-9-2.27-11.64,2.43-7.52,13.22-11.37,26.45-15.8,39.67-2.19,6.61-4.48,13.22-6.29,19.83a141.88,141.88,0,0,0-3.93,19.83A382.72,382.72,0,0,0,292.83,223c-.09,6.61,0,13.22.38,19.83C293.58,249.14,294.1,525.05,295.2,539.11Z"/><path class="cls-18" d="M298.36,465.46h17a9,9,0,0,1,9,9v49.31a0,0,0,0,1,0,0h-35a0,0,0,0,1,0,0V474.46A9,9,0,0,1,298.36,465.46Z"/><path class="cls-19" d="M342.67,465.46h17a9,9,0,0,1,9,9v49.31a0,0,0,0,1,0,0h-35a0,0,0,0,1,0,0V474.46A9,9,0,0,1,342.67,465.46Z"/><path class="cls-20" d="M365.88,538.94H336.46c-2.17,0-3.78-1.7-3.31-3.49l3-11.49a.29.29,0,0,1,.29-.19h29.39a.3.3,0,0,1,.3.19l3,11.49C369.65,537.24,368,538.94,365.88,538.94Z"/><path class="cls-20" d="M320.1,538.94H290.68c-2.17,0-3.78-1.7-3.31-3.49l3-11.49a.29.29,0,0,1,.29-.19h29.4a.29.29,0,0,1,.29.19l3,11.49C323.87,537.24,322.26,538.94,320.1,538.94Z"/><rect class="cls-14" x="295.84" y="271.95" width="64.86" height="1.89"/><rect class="cls-14" x="295.84" y="356.35" width="64.86" height="1.89"/><rect class="cls-14" x="295.84" y="440.74" width="64.86" height="1.89"/><path class="cls-21" d="M421,569H376.55c-3.27,0-5.7-2.31-5-4.73l4.57-15.55a.43.43,0,0,1,.44-.27H421a.44.44,0,0,1,.44.27L426,564.27C426.67,566.69,424.24,569,421,569Z"/><path class="cls-21" d="M280.22,569H235.81c-3.28,0-5.71-2.31-5-4.73l4.56-15.55a.44.44,0,0,1,.44-.27H280.2a.45.45,0,0,1,.45.27l4.56,15.55C285.92,566.69,283.49,569,280.22,569Z"/><path class="cls-21" d="M350.57,142.32a54.38,54.38,0,0,1-44.59,0c4.2-12.74,8.11-25.48,15.36-38.19,2.73-4.83,8.07-5.93,11.89-2.5a10.5,10.5,0,0,1,2,2.5C342.47,116.84,346.37,129.58,350.57,142.32Z"/><polygon class="cls-21" points="312.23 193.99 312.23 199.9 302.54 206.28 302.54 189.11 312.23 193.99"/><polygon class="cls-21" points="319.16 188 314.2 191.47 304.82 186.75 318.21 177.76 319.16 188"/><polygon class="cls-21" points="343.65 194.22 343.65 200.12 353.34 206.5 353.34 189.33 343.65 194.22"/><polygon class="cls-21" points="336.72 188.23 341.69 191.69 351.06 186.97 337.67 177.99 336.72 188.23"/><polygon class="cls-21" points="328.22 171.15 321.05 176.66 321.05 187.14 327.43 184.22 333.81 187.14 334.16 177.18 328.22 171.15"/><rect class="cls-21" x="317.19" y="201.11" width="8.72" height="9.45"/><rect class="cls-21" x="330.42" y="201.11" width="8.72" height="9.45"/></g></g></svg>